<?xml version="1.0" standalone="no"?>
<!DOCTYPE svg PUBLIC "-//W3C//DTD SVG 20010904//EN"
 "http://www.w3.org/TR/2001/REC-SVG-20010904/DTD/svg10.dtd">
<svg version="1.0" xmlns="http://www.w3.org/2000/svg"
 width="512.000000pt" height="512.000000pt" viewBox="0 0 512.000000 512.000000"
 preserveAspectRatio="xMidYMid meet">
<metadata>
Created by potrace 1.11, written by Peter Selinger 2001-2013
</metadata>
<g transform="translate(0.000000,512.000000) scale(0.100000,-0.100000)"
fill="#000000" stroke="none">
<path d="M2103 2786 c-105 -34 -267 -162 -478 -377 -166 -170 -353 -371 -490
-527 -49 -56 -93 -102 -98 -102 -4 0 -6 15 -3 33 10 61 29 637 23 686 -11 96
-64 162 -152 192 -63 21 -201 17 -257 -8 -72 -33 -82 -55 -69 -155 6 -46 22
-128 35 -183 62 -255 61 -244 59 -715 -1 -458 -2 -461 -57 -815 -32 -205 -48
-408 -36 -459 11 -49 37 -85 81 -111 28 -17 52 -20 139 -20 92 0 111 3 154 25
91 46 91 45 91 328 -1 173 -6 293 -19 402 -37 318 -24 440 56 516 59 56 168
144 178 144 13 0 199 -202 285 -310 201 -251 399 -605 585 -1050 25 -58 49
-109 55 -113 5 -4 75 -6 155 -5 131 3 150 5 195 28 67 33 68 52 10 145 -119
191 -806 1140 -987 1362 -72 88 -74 111 -19 181 55 69 207 220 416 412 99 91
232 218 297 282 126 125 140 151 96 180 -58 38 -180 55 -245 34z"/>
<path d="M3352 2739 c-265 -31 -494 -128 -652 -276 -167 -157 -246 -347 -271
-650 -15 -191 -6 -612 16 -738 40 -227 118 -397 235 -516 209 -212 481 -311
890 -326 181 -6 231 -1 461 49 l146 31 58 -29 c49 -23 75 -29 151 -32 139 -6
214 26 214 92 0 46 -32 164 -84 312 -29 81 -50 162 -55 209 -11 95 -28 120
-106 160 -56 28 -68 30 -195 33 -148 4 -433 -20 -528 -44 -31 -8 -66 -24 -77
-35 -18 -18 -19 -22 -5 -47 10 -18 32 -33 65 -45 43 -15 77 -17 252 -14 230 5
215 10 257 -83 22 -49 56 -200 56 -252 0 -26 -137 -90 -251 -118 -171 -42
-432 -37 -609 12 -137 37 -216 82 -308 176 -102 105 -151 198 -184 352 -21 96
-23 129 -22 395 1 294 13 465 40 582 45 194 109 337 197 439 150 175 268 228
502 223 285 -6 298 -5 340 16 78 39 49 102 -56 124 -58 13 -369 12 -477 0z"/>
</g>
</svg>
